<svg width="64" height="68" viewBox="0 0 64 68" fill="none" xmlns="http://www.w3.org/2000/svg">
<g clip-path="url(#clip0_2130_530)" filter="url(#filter0_dddd_2130_530)">
<g filter="url(#filter1_ddddd_2130_530)">
<path d="M47.8377 24.0819H41.5238C41.594 24.0225 41.666 23.9649 41.7344 23.9019C42.281 23.4162 42.7216 22.823 43.0285 22.1593C43.3354 21.4957 43.502 20.7758 43.518 20.0448C43.5417 19.245 43.4016 18.4489 43.1065 17.7053C42.8113 16.9616 42.3672 16.2861 41.8016 15.7203C41.2359 15.1545 40.5606 14.7102 39.817 14.4149C39.0735 14.1195 38.2774 13.9792 37.4777 14.0026C36.7463 14.0183 36.0261 14.1849 35.3621 14.4918C34.6981 14.7987 34.1046 15.2394 33.6187 15.7862C32.9464 16.5654 32.3999 17.4447 31.9988 18.3925C31.5978 17.4447 31.0512 16.5654 30.379 15.7862C29.8931 15.2394 29.2996 14.7987 28.6356 14.4918C27.9716 14.1849 27.2514 14.0183 26.52 14.0026C25.7203 13.9792 24.9242 14.1195 24.1806 14.4149C23.4371 14.7102 22.7618 15.1545 22.1961 15.7203C21.6304 16.2861 21.1864 16.9616 20.8912 17.7053C20.5961 18.4489 20.456 19.245 20.4796 20.0448C20.4956 20.7758 20.6623 21.4957 20.9692 22.1593C21.2761 22.823 21.7167 23.4162 22.2633 23.9019C22.3317 23.9613 22.4037 24.0189 22.4739 24.0819H16.16C15.3962 24.0819 14.6637 24.3853 14.1236 24.9253C13.5836 25.4654 13.2802 26.1979 13.2802 26.9617V32.7213C13.2802 33.485 13.5836 34.2175 14.1236 34.7576C14.6637 35.2977 15.3962 35.6011 16.16 35.6011V47.1203C16.16 47.884 16.4634 48.6165 17.0034 49.1566C17.5435 49.6967 18.276 50.0001 19.0397 50.0001H29.839C30.0299 50.0001 30.2131 49.9242 30.3481 49.7892C30.4831 49.6542 30.5589 49.471 30.5589 49.2801V32.7213H16.16V26.9617H30.5589V32.7213H33.4387V26.9617H47.8377V32.7213H33.4387V49.2801C33.4387 49.471 33.5146 49.6542 33.6496 49.7892C33.7846 49.9242 33.9677 50.0001 34.1587 50.0001H44.9579C45.7217 50.0001 46.4542 49.6967 46.9943 49.1566C47.5343 48.6165 47.8377 47.884 47.8377 47.1203V35.6011C48.6015 35.6011 49.334 35.2977 49.8741 34.7576C50.4141 34.2175 50.7175 33.485 50.7175 32.7213V26.9617C50.7175 26.1979 50.4141 25.4654 49.8741 24.9253C49.334 24.3853 48.6015 24.0819 47.8377 24.0819ZM24.1712 21.742C23.9194 21.514 23.7175 21.2365 23.5781 20.9267C23.4387 20.617 23.3649 20.2818 23.3612 19.9422C23.3521 19.5442 23.4226 19.1484 23.5684 18.7781C23.7142 18.4077 23.9324 18.0701 24.2103 17.7851C24.4883 17.5002 24.8203 17.2736 25.1869 17.1185C25.5535 16.9635 25.9474 16.8832 26.3454 16.8824H26.4336C26.7733 16.886 27.1085 16.9599 27.4182 17.0993C27.7279 17.2386 28.0055 17.4406 28.2335 17.6923C29.7436 19.3986 30.2764 22.228 30.4636 23.9775C28.7069 23.7921 25.8793 23.2593 24.1712 21.742ZM39.8301 21.742C38.122 23.2539 35.2872 23.7867 33.5305 23.9739C33.7447 22.0822 34.3387 19.3122 35.7786 17.6941C36.0066 17.4424 36.2841 17.2404 36.5939 17.1011C36.9036 16.9617 37.2388 16.8878 37.5785 16.8842H37.6666C38.0647 16.8867 38.4583 16.9686 38.8243 17.1251C39.1903 17.2817 39.5214 17.5097 39.7982 17.7958C40.0749 18.082 40.2918 18.4205 40.436 18.7915C40.5803 19.1625 40.649 19.5586 40.6382 19.9566C40.6324 20.2939 40.5573 20.6264 40.4177 20.9335C40.278 21.2407 40.0768 21.5159 39.8265 21.742H39.8301Z" fill="#D658B3"/>
<path d="M22.3614 19.9591C22.3673 20.4345 22.4711 20.9035 22.6662 21.3371C22.8622 21.7725 23.146 22.1628 23.5 22.4833L23.4999 22.4833L23.5071 22.4897C24.512 23.3823 25.7986 23.9488 27.0087 24.3161C28.2289 24.6865 29.4419 24.8752 30.3586 24.972L31.5896 25.1019L31.4579 23.8711C31.3602 22.9586 31.1711 21.7476 30.8016 20.5286C30.4353 19.32 29.8709 18.0336 28.9824 17.0296L28.9824 17.0295L28.9748 17.0211C28.6542 16.6671 28.264 16.3833 27.8286 16.1873C27.3931 15.9914 26.9219 15.8876 26.4444 15.8824V15.8824H26.4336L26.3454 15.8824L26.3433 15.8824C25.8122 15.8835 25.2866 15.9906 24.7974 16.1975C24.3083 16.4043 23.8653 16.7067 23.4944 17.0869C23.1236 17.4672 22.8324 17.9176 22.6379 18.4118C22.444 18.9041 22.3501 19.4301 22.3614 19.9591ZM22.3614 19.9591C22.3614 19.957 22.3613 19.955 22.3613 19.9529L23.3612 19.9422M22.3614 19.9591C22.3614 19.9611 22.3615 19.963 22.3615 19.965L23.3612 19.9422M23.3612 19.9422C23.3521 19.5442 23.4226 19.1484 23.5684 18.7781C23.7142 18.4077 23.9324 18.0701 24.2103 17.7851C24.4883 17.5002 24.8203 17.2736 25.1869 17.1185C25.5535 16.9635 25.9474 16.8832 26.3454 16.8824H26.4336C26.7733 16.886 27.1085 16.9599 27.4182 17.0993C27.7279 17.2386 28.0055 17.4406 28.2335 17.6923C29.4755 19.0957 30.0564 21.2589 30.3277 22.956C30.4099 22.9658 30.4902 22.9747 30.5685 22.983L30.4636 23.9775L29.4692 24.0839C29.4608 24.0056 29.4518 23.9251 29.4419 23.8428C27.7407 23.5726 25.5768 22.9907 24.1712 21.742C23.9194 21.514 23.7175 21.2365 23.5781 20.9267C23.4387 20.617 23.3649 20.2818 23.3612 19.9422ZM40.8778 23.3185L38.7938 25.0819H41.5238H47.8377C48.3363 25.0819 48.8144 25.2799 49.167 25.6325C49.5195 25.985 49.7175 26.4631 49.7175 26.9617V32.7213C49.7175 33.2198 49.5195 33.698 49.167 34.0505C48.8144 34.403 48.3363 34.6011 47.8377 34.6011H46.8377V35.6011V47.1203C46.8377 47.6188 46.6397 48.0969 46.2872 48.4495C45.9346 48.802 45.4565 49.0001 44.9579 49.0001H34.4387V33.7213H47.8377H48.8377V32.7213V26.9617V25.9617H47.8377H33.4387H32.4387V26.9617V31.7213H31.5589V26.9617V25.9617H30.5589H16.16H15.16V26.9617V32.7213V33.7213H16.16H29.5589V49.0001H19.0397C18.5412 49.0001 18.0631 48.802 17.7105 48.4495C17.358 48.0969 17.16 47.6188 17.16 47.1203V35.6011V34.6011H16.16C15.6614 34.6011 15.1833 34.403 14.8307 34.0505C14.4782 33.698 14.2802 33.2198 14.2802 32.7213V26.9617C14.2802 26.4631 14.4782 25.985 14.8307 25.6325C15.1833 25.2799 15.6614 25.0819 16.16 25.0819H22.4739H25.0854L23.1418 23.3376C23.0934 23.2942 22.9945 23.2107 22.9461 23.1698C22.935 23.1604 22.9265 23.1533 22.922 23.1494C22.4807 22.756 22.125 22.2762 21.8769 21.7396C21.6277 21.2008 21.4924 20.6164 21.4794 20.0229L21.4794 20.0229L21.4792 20.0152C21.4596 19.3517 21.5758 18.6912 21.8207 18.0742C22.0656 17.4572 22.434 16.8968 22.9033 16.4273C23.3726 15.9579 23.9329 15.5893 24.5498 15.3442C25.1668 15.0991 25.8272 14.9827 26.4908 15.0021L26.4908 15.0022L26.4985 15.0023C27.0922 15.0151 27.6769 15.1503 28.216 15.3995C28.753 15.6477 29.2331 16.0036 29.6267 16.4452C30.2288 17.1441 30.7184 17.9326 31.0779 18.7822L31.9988 20.9584L32.9198 18.7822C33.2793 17.9326 33.7689 17.1441 34.371 16.4452C34.7645 16.0036 35.2447 15.6477 35.7817 15.3995C36.3207 15.1503 36.9055 15.0151 37.4992 15.0023L37.4992 15.0024L37.5069 15.0021C38.1704 14.9827 38.8309 15.0991 39.4478 15.3442C40.0648 15.5893 40.6251 15.9579 41.0944 16.4273C41.5637 16.8968 41.9321 17.4572 42.177 18.0742C42.4219 18.6912 42.5381 19.3517 42.5185 20.0152L42.5184 20.0152L42.5183 20.0229C42.513 20.2649 42.4873 20.5055 42.4419 20.742H41.5381C41.5995 20.4927 41.6332 20.2367 41.638 19.9787C41.6517 19.4494 41.5599 18.9226 41.3681 18.4291C41.1756 17.9341 40.8862 17.4824 40.517 17.1006C40.1477 16.7188 39.7059 16.4146 39.2176 16.2057C38.7292 15.9968 38.204 15.8875 37.6729 15.8842V15.8842H37.6666H37.5785V15.8841L37.5677 15.8842C37.0902 15.8894 36.6189 15.9932 36.1835 16.1891C35.7481 16.3851 35.3578 16.6689 35.0373 17.0229L35.0373 17.0229L35.0315 17.0293C34.1794 17.9869 33.6171 19.2338 33.2409 20.4318C32.8611 21.641 32.6488 22.8727 32.5369 23.8614L32.3966 25.1004L33.6365 24.9682C34.5525 24.8706 35.7667 24.6815 36.9882 24.3118C38.1993 23.9453 39.4878 23.3805 40.4929 22.4908L42.4363 20.7706C42.37 21.1041 42.2643 21.4294 42.1208 21.7396C41.8716 22.2784 41.514 22.76 41.0702 23.1543L41.0635 23.1603L41.0569 23.1663C41.0265 23.1944 41.0021 23.2146 40.9634 23.2468C40.941 23.2654 40.9138 23.2881 40.8778 23.3185Z" stroke="white" stroke-width="2"/>
</g>
</g>
<defs>
<filter id="filter0_dddd_2130_530" x="-10" y="-2" width="84" height="102" filterUnits="userSpaceOnUse" color-interpolation-filters="sRGB">
<feFlood flood-opacity="0" result="BackgroundImageFix"/>
<feColorMatrix in="SourceAlpha" type="matrix" values="0 0 0 0 0 0 0 0 0 0 0 0 0 0 0 0 0 0 127 0" result="hardAlpha"/>
<feOffset dy="2"/>
<feGaussianBlur stdDeviation="2"/>
<feColorMatrix type="matrix" values="0 0 0 0 0 0 0 0 0 0 0 0 0 0 0 0 0 0 0.08 0"/>
<feBlend mode="normal" in2="BackgroundImageFix" result="effect1_dropShadow_2130_530"/>
<feColorMatrix in="SourceAlpha" type="matrix" values="0 0 0 0 0 0 0 0 0 0 0 0 0 0 0 0 0 0 127 0" result="hardAlpha"/>
<feOffset dy="6"/>
<feGaussianBlur stdDeviation="3"/>
<feColorMatrix type="matrix" values="0 0 0 0 0 0 0 0 0 0 0 0 0 0 0 0 0 0 0.07 0"/>
<feBlend mode="normal" in2="effect1_dropShadow_2130_530" result="effect2_dropShadow_2130_530"/>
<feColorMatrix in="SourceAlpha" type="matrix" values="0 0 0 0 0 0 0 0 0 0 0 0 0 0 0 0 0 0 127 0" result="hardAlpha"/>
<feOffset dy="15"/>
<feGaussianBlur stdDeviation="4.5"/>
<feColorMatrix type="matrix" values="0 0 0 0 0 0 0 0 0 0 0 0 0 0 0 0 0 0 0.04 0"/>
<feBlend mode="normal" in2="effect2_dropShadow_2130_530" result="effect3_dropShadow_2130_530"/>
<feColorMatrix in="SourceAlpha" type="matrix" values="0 0 0 0 0 0 0 0 0 0 0 0 0 0 0 0 0 0 127 0" result="hardAlpha"/>
<feOffset dy="26"/>
<feGaussianBlur stdDeviation="5"/>
<feColorMatrix type="matrix" values="0 0 0 0 0 0 0 0 0 0 0 0 0 0 0 0 0 0 0.01 0"/>
<feBlend mode="normal" in2="effect3_dropShadow_2130_530" result="effect4_dropShadow_2130_530"/>
<feBlend mode="normal" in="SourceGraphic" in2="effect4_dropShadow_2130_530" result="shape"/>
</filter>
<filter id="filter1_ddddd_2130_530" x="10.2802" y="13.0001" width="43.4374" height="52" filterUnits="userSpaceOnUse" color-interpolation-filters="sRGB">
<feFlood flood-opacity="0" result="BackgroundImageFix"/>
<feColorMatrix in="SourceAlpha" type="matrix" values="0 0 0 0 0 0 0 0 0 0 0 0 0 0 0 0 0 0 127 0" result="hardAlpha"/>
<feOffset/>
<feGaussianBlur stdDeviation="0.5"/>
<feColorMatrix type="matrix" values="0 0 0 0 0 0 0 0 0 0 0 0 0 0 0 0 0 0 0.29 0"/>
<feBlend mode="normal" in2="BackgroundImageFix" result="effect1_dropShadow_2130_530"/>
<feColorMatrix in="SourceAlpha" type="matrix" values="0 0 0 0 0 0 0 0 0 0 0 0 0 0 0 0 0 0 127 0" result="hardAlpha"/>
<feOffset dy="2"/>
<feGaussianBlur stdDeviation="1"/>
<feColorMatrix type="matrix" values="0 0 0 0 0 0 0 0 0 0 0 0 0 0 0 0 0 0 0.26 0"/>
<feBlend mode="normal" in2="effect1_dropShadow_2130_530" result="effect2_dropShadow_2130_530"/>
<feColorMatrix in="SourceAlpha" type="matrix" values="0 0 0 0 0 0 0 0 0 0 0 0 0 0 0 0 0 0 127 0" result="hardAlpha"/>
<feOffset dy="4"/>
<feGaussianBlur stdDeviation="1.5"/>
<feColorMatrix type="matrix" values="0 0 0 0 0 0 0 0 0 0 0 0 0 0 0 0 0 0 0.15 0"/>
<feBlend mode="normal" in2="effect2_dropShadow_2130_530" result="effect3_dropShadow_2130_530"/>
<feColorMatrix in="SourceAlpha" type="matrix" values="0 0 0 0 0 0 0 0 0 0 0 0 0 0 0 0 0 0 127 0" result="hardAlpha"/>
<feOffset dy="8"/>
<feGaussianBlur stdDeviation="1.5"/>
<feColorMatrix type="matrix" values="0 0 0 0 0 0 0 0 0 0 0 0 0 0 0 0 0 0 0.04 0"/>
<feBlend mode="normal" in2="effect3_dropShadow_2130_530" result="effect4_dropShadow_2130_530"/>
<feColorMatrix in="SourceAlpha" type="matrix" values="0 0 0 0 0 0 0 0 0 0 0 0 0 0 0 0 0 0 127 0" result="hardAlpha"/>
<feOffset dy="12"/>
<feGaussianBlur stdDeviation="1.5"/>
<feColorMatrix type="matrix" values="0 0 0 0 0 0 0 0 0 0 0 0 0 0 0 0 0 0 0.01 0"/>
<feBlend mode="normal" in2="effect4_dropShadow_2130_530" result="effect5_dropShadow_2130_530"/>
<feBlend mode="normal" in="SourceGraphic" in2="effect5_dropShadow_2130_530" result="shape"/>
</filter>
<clipPath id="clip0_2130_530">
<rect width="64" height="64" fill="white"/>
</clipPath>
</defs>
</svg>
